<svg width="469" height="112" viewBox="0 0 469 112" fill="none" xmlns="http://www.w3.org/2000/svg">
<path d="M223.241 96.13C220.002 96.13 217.591 95.0377 216.009 92.853C214.427 90.593 213.636 87.1653 213.636 82.57V11.154H217.93V82.457C217.93 86.2237 218.382 88.8227 219.286 90.254C220.19 91.61 221.81 92.288 224.145 92.288C225.727 92.288 227.422 91.949 229.23 91.271L230.134 94.435C227.874 95.565 225.577 96.13 223.241 96.13ZM244.958 25.166C243.677 25.166 242.622 24.7517 241.794 23.923C241.04 23.019 240.664 21.889 240.664 20.533C240.664 19.177 241.04 18.0847 241.794 17.256C242.622 16.352 243.677 15.9 244.958 15.9C246.238 15.9 247.255 16.352 248.009 17.256C248.837 18.0847 249.252 19.177 249.252 20.533C249.252 21.889 248.837 23.019 248.009 23.923C247.255 24.7517 246.238 25.166 244.958 25.166ZM242.811 38.5H247.105V95H242.811V38.5ZM262.447 52.06C262.447 45.8073 262.334 41.2873 262.108 38.5H265.724C266.101 42.7187 266.214 46.749 266.063 50.591H266.515C268.323 46.523 271.035 43.3213 274.651 40.986C278.342 38.5753 282.297 37.37 286.516 37.37C293.07 37.37 298.004 39.517 301.319 43.811C304.634 48.0297 306.291 54.3577 306.291 62.795V95H301.997V62.682C301.997 48.3687 296.987 41.212 286.968 41.212C283.126 41.212 279.661 42.229 276.572 44.263C273.559 46.2217 271.148 48.9713 269.34 52.512C267.607 56.0527 266.741 59.97 266.741 64.264V95H262.447V52.06ZM354.665 95L334.325 63.925L324.042 74.547V95H319.748V11.154H324.042V69.123L353.987 38.5H359.072L337.263 60.874L359.863 95H354.665ZM406.854 68.671H364.705C365.006 76.0537 366.927 81.8543 370.468 86.073C374.009 90.2163 378.83 92.288 384.932 92.288C388.473 92.288 391.712 91.497 394.65 89.915C397.663 88.2577 399.886 86.073 401.317 83.361L404.255 86.299C399.66 92.853 393.256 96.13 385.045 96.13C377.436 96.13 371.41 93.531 366.965 88.333C362.596 83.0597 360.411 75.903 360.411 66.863C360.411 57.6723 362.52 50.478 366.739 45.28C370.958 40.0067 376.758 37.37 384.141 37.37C391.222 37.37 396.759 39.8183 400.752 44.715C404.82 49.5363 406.854 56.241 406.854 64.829V68.671ZM402.56 63.699C402.56 56.919 400.903 51.495 397.588 47.427C394.273 43.2837 389.866 41.212 384.367 41.212C378.34 41.212 373.632 43.2837 370.242 47.427C366.852 51.495 365.006 57.2957 364.705 64.829H402.56V63.699ZM436.36 96.13C429.203 96.13 423.553 93.418 419.41 87.994C415.267 82.57 413.195 75.1497 413.195 65.733C413.195 56.919 415.304 49.9883 419.523 44.941C423.742 39.8937 429.505 37.37 436.812 37.37C440.654 37.37 444.157 38.3117 447.321 40.195C450.56 42.0783 453.122 44.6773 455.005 47.992H455.231V11.154H459.525V81.44C459.525 87.542 459.638 92.062 459.864 95H456.248C456.022 90.932 455.909 87.429 455.909 84.491H455.683C453.95 88.0317 451.351 90.8567 447.886 92.966C444.421 95.0753 440.579 96.13 436.36 96.13ZM436.134 92.288C439.825 92.288 443.102 91.4593 445.965 89.802C448.903 88.0693 451.163 85.6963 452.745 82.683C454.402 79.5943 455.231 76.1667 455.231 72.4V63.473C455.231 56.6177 453.536 51.1937 450.146 47.201C446.831 43.2083 442.311 41.212 436.586 41.212C430.635 41.212 425.964 43.4343 422.574 47.879C419.184 52.2483 417.489 58.275 417.489 65.959C417.489 74.095 419.146 80.536 422.461 85.282C425.851 89.9527 430.409 92.288 436.134 92.288Z" fill="white"/>
<path d="M244.651 5.00598L248.567 15.2247L259.151 19.006L248.567 22.7873L244.651 33.006L240.734 22.7873L230.151 19.006L240.734 15.2247L244.651 5.00598Z" fill="white"/>
<path d="M23.9364 90.2625C29.6864 90.2625 33.4364 88.4708 35.1864 84.8875C35.7697 83.7208 36.0614 82.5125 36.0614 81.2625C36.0614 77.5958 33.4781 74.4708 28.3114 71.8875C27.2281 71.3042 25.4364 70.4708 22.9364 69.3875C16.2697 66.5542 11.8114 63.8875 9.5614 61.3875C7.22807 58.7208 6.0614 55.5958 6.0614 52.0125C6.0614 46.0958 9.3114 41.8875 15.8114 39.3875C18.8947 38.3042 22.2281 37.7625 25.8114 37.7625C31.4781 37.7625 36.2697 38.9292 40.1864 41.2625C40.1864 38.8458 40.7697 37.4708 41.9364 37.1375C42.3531 37.0542 42.8947 37.0125 43.5614 37.0125V52.6375H40.1864C40.0197 44.9708 35.7697 41.0958 27.4364 41.0125C21.4364 41.0125 17.6864 42.8458 16.1864 46.5125C15.8531 47.5125 15.6864 48.5125 15.6864 49.5125C15.6864 53.0958 18.2281 56.1375 23.3114 58.6375C24.4781 59.2208 26.2697 60.0125 28.6864 61.0125C35.4364 63.7625 39.9364 66.3458 42.1864 68.7625C44.6031 71.5125 45.8114 74.7625 45.8114 78.5125C45.8114 85.4292 42.1864 90.0125 34.9364 92.2625C32.1031 93.1792 29.0197 93.6375 25.6864 93.6375C19.4364 93.5542 14.0197 92.0958 9.4364 89.2625C9.4364 91.4292 8.89473 92.6792 7.8114 93.0125C7.3114 93.0958 6.72807 93.1375 6.0614 93.1375V74.1375H9.6864C9.85307 84.8042 14.6031 90.1792 23.9364 90.2625ZM51.6564 42.3875V39.2625H60.4064V27.3875L71.0314 24.7625V39.2625H89.9064V42.3875H71.0314V80.3875C71.1147 86.6375 73.3647 89.8458 77.7814 90.0125C82.0314 89.9292 85.0314 86.1792 86.7814 78.7625L90.1564 79.3875C90.1564 79.4708 90.1564 79.5542 90.1564 79.6375C88.2397 89.0542 83.3647 93.7625 75.5314 93.7625C66.0314 93.4292 60.9897 87.8042 60.4064 76.8875V42.3875H51.6564ZM138.251 93.6375C132.251 93.5542 128.71 89.7625 127.626 82.2625C126.876 84.0958 125.751 85.8042 124.251 87.3875C120.251 91.5542 115.21 93.6375 109.126 93.6375C106.626 93.6375 104.293 93.2208 102.126 92.3875C96.3764 90.1375 93.5014 85.7208 93.5014 79.1375C93.5014 78.0542 93.5847 77.0542 93.7514 76.1375C95.5014 66.6375 106.751 61.8458 127.501 61.7625V53.8875C127.418 45.3875 123.668 41.0542 116.251 40.8875C113.085 40.8875 110.71 41.9708 109.126 44.1375C108.876 44.5542 108.168 46.3875 107.001 49.6375C106.001 52.3042 104.376 53.6375 102.126 53.6375C101.626 53.6375 101.085 53.5958 100.501 53.5125C98.0014 52.9292 96.7514 51.3042 96.7514 48.6375C96.7514 47.2208 97.2514 45.8042 98.2514 44.3875C101.418 39.9708 107.835 37.7625 117.501 37.7625C131.085 37.8458 137.96 44.2208 138.126 56.8875V83.2625C138.21 87.3458 139.293 89.4708 141.376 89.6375C143.96 89.5542 145.543 86.5125 146.126 80.5125L149.376 80.6375C149.293 82.0542 149.168 83.3875 149.001 84.6375C147.835 90.6375 144.251 93.6375 138.251 93.6375ZM113.751 88.5125C115.251 88.5125 116.835 88.1792 118.501 87.5125C123.085 85.3458 126.085 81.3875 127.501 75.6375V65.2625C121.668 65.3458 117.126 65.7625 113.876 66.5125C107.71 68.0125 104.626 71.5542 104.626 77.1375C104.626 78.0542 104.668 78.9292 104.751 79.7625C105.501 85.5958 108.501 88.5125 113.751 88.5125ZM181.096 89.2625C181.596 89.2625 182.013 89.3042 182.346 89.3875C183.596 89.5542 184.221 90.5542 184.221 92.3875H152.471V89.2625C154.971 89.2625 156.805 89.0958 157.971 88.7625C160.221 88.0125 161.346 85.7208 161.346 81.8875V42.2625H152.471V39.1375H171.346L171.846 51.1375C172.846 48.8042 174.18 46.7208 175.846 44.8875C179.846 40.5542 184.43 38.3875 189.596 38.3875C190.513 38.3875 191.388 38.4708 192.221 38.6375C196.055 39.4708 197.971 41.8042 197.971 45.6375C197.971 46.2208 197.888 46.8458 197.721 47.5125C196.888 50.0958 195.096 51.3875 192.346 51.3875C191.763 51.3875 191.18 51.3042 190.596 51.1375C189.263 50.7208 187.93 49.3458 186.596 47.0125C185.43 44.9292 184.221 43.8875 182.971 43.8875C181.971 43.8875 180.763 44.4708 179.346 45.6375C175.096 49.2208 172.68 54.5958 172.096 61.7625V89.2625H181.096Z" fill="white"/>
</svg>
