<svg width="469" height="162" viewBox="0 0 469 162" fill="none" xmlns="http://www.w3.org/2000/svg">
<path d="M223.034 122.13C219.795 122.13 217.384 121.038 215.802 118.853C214.22 116.593 213.429 113.165 213.429 108.57V37.154H217.723V108.457C217.723 112.224 218.175 114.823 219.079 116.254C219.983 117.61 221.603 118.288 223.938 118.288C225.52 118.288 227.215 117.949 229.023 117.271L229.927 120.435C227.667 121.565 225.369 122.13 223.034 122.13ZM244.75 51.166C243.47 51.166 242.415 50.7517 241.586 49.923C240.833 49.019 240.456 47.889 240.456 46.533C240.456 45.177 240.833 44.0847 241.586 43.256C242.415 42.352 243.47 41.9 244.75 41.9C246.031 41.9 247.048 42.352 247.801 43.256C248.63 44.0847 249.044 45.177 249.044 46.533C249.044 47.889 248.63 49.019 247.801 49.923C247.048 50.7517 246.031 51.166 244.75 51.166ZM242.603 64.5H246.897V121H242.603V64.5ZM262.24 78.06C262.24 71.8073 262.127 67.2873 261.901 64.5H265.517C265.893 68.7187 266.006 72.749 265.856 76.591H266.308C268.116 72.523 270.828 69.3213 274.444 66.986C278.135 64.5753 282.09 63.37 286.309 63.37C292.863 63.37 297.797 65.517 301.112 69.811C304.426 74.0297 306.084 80.3577 306.084 88.795V121H301.79V88.682C301.79 74.3687 296.78 67.212 286.761 67.212C282.919 67.212 279.453 68.229 276.365 70.263C273.351 72.2217 270.941 74.9713 269.133 78.512C267.4 82.0527 266.534 85.97 266.534 90.264V121H262.24V78.06ZM354.457 121L334.117 89.925L323.834 100.547V121H319.54V37.154H323.834V95.123L353.779 64.5H358.864L337.055 86.874L359.655 121H354.457ZM406.647 94.671H364.498C364.799 102.054 366.72 107.854 370.261 112.073C373.801 116.216 378.623 118.288 384.725 118.288C388.265 118.288 391.505 117.497 394.443 115.915C397.456 114.258 399.678 112.073 401.11 109.361L404.048 112.299C399.452 118.853 393.049 122.13 384.838 122.13C377.229 122.13 371.202 119.531 366.758 114.333C362.388 109.06 360.204 101.903 360.204 92.863C360.204 83.6723 362.313 76.478 366.532 71.28C370.75 66.0067 376.551 63.37 383.934 63.37C391.015 63.37 396.552 65.8183 400.545 70.715C404.613 75.5363 406.647 82.241 406.647 90.829V94.671ZM402.353 89.699C402.353 82.919 400.695 77.495 397.381 73.427C394.066 69.2837 389.659 67.212 384.16 67.212C378.133 67.212 373.425 69.2837 370.035 73.427C366.645 77.495 364.799 83.2957 364.498 90.829H402.353V89.699ZM436.153 122.13C428.996 122.13 423.346 119.418 419.203 113.994C415.059 108.57 412.988 101.15 412.988 91.733C412.988 82.919 415.097 75.9883 419.316 70.941C423.534 65.8937 429.297 63.37 436.605 63.37C440.447 63.37 443.95 64.3117 447.114 66.195C450.353 68.0783 452.914 70.6773 454.798 73.992H455.024V37.154H459.318V107.44C459.318 113.542 459.431 118.062 459.657 121H456.041C455.815 116.932 455.702 113.429 455.702 110.491H455.476C453.743 114.032 451.144 116.857 447.679 118.966C444.213 121.075 440.371 122.13 436.153 122.13ZM435.927 118.288C439.618 118.288 442.895 117.459 445.758 115.802C448.696 114.069 450.956 111.696 452.538 108.683C454.195 105.594 455.024 102.167 455.024 98.4V89.473C455.024 82.6177 453.329 77.1937 449.939 73.201C446.624 69.2083 442.104 67.212 436.379 67.212C430.427 67.212 425.757 69.4343 422.367 73.879C418.977 78.2483 417.282 84.275 417.282 91.959C417.282 100.095 418.939 106.536 422.254 111.282C425.644 115.953 430.201 118.288 435.927 118.288Z" fill="white"/>
<path d="M244.5 28L248.416 38.5837L259 42.5L248.416 46.4163L244.5 57L240.584 46.4163L230 42.5L240.584 38.5837L244.5 28Z" fill="white"/>
<path d="M23.875 116.875C29.625 116.875 33.375 115.083 35.125 111.5C35.7083 110.333 36 109.125 36 107.875C36 104.208 33.4167 101.083 28.25 98.5C27.1667 97.9167 25.375 97.0833 22.875 96C16.2083 93.1667 11.75 90.5 9.5 88C7.16667 85.3333 6 82.2083 6 78.625C6 72.7083 9.25 68.5 15.75 66C18.8333 64.9167 22.1667 64.375 25.75 64.375C31.4167 64.375 36.2083 65.5417 40.125 67.875C40.125 65.4583 40.7083 64.0833 41.875 63.75C42.2917 63.6667 42.8333 63.625 43.5 63.625V79.25H40.125C39.9583 71.5833 35.7083 67.7083 27.375 67.625C21.375 67.625 17.625 69.4583 16.125 73.125C15.7917 74.125 15.625 75.125 15.625 76.125C15.625 79.7083 18.1667 82.75 23.25 85.25C24.4167 85.8333 26.2083 86.625 28.625 87.625C35.375 90.375 39.875 92.9583 42.125 95.375C44.5417 98.125 45.75 101.375 45.75 105.125C45.75 112.042 42.125 116.625 34.875 118.875C32.0417 119.792 28.9583 120.25 25.625 120.25C19.375 120.167 13.9583 118.708 9.375 115.875C9.375 118.042 8.83333 119.292 7.75 119.625C7.25 119.708 6.66667 119.75 6 119.75V100.75H9.625C9.79167 111.417 14.5417 116.792 23.875 116.875ZM51.595 69V65.875H60.345V54L70.97 51.375V65.875H89.845V69H70.97V107C71.0533 113.25 73.3033 116.458 77.72 116.625C81.97 116.542 84.97 112.792 86.72 105.375L90.095 106C90.095 106.083 90.095 106.167 90.095 106.25C88.1783 115.667 83.3033 120.375 75.47 120.375C65.97 120.042 60.9283 114.417 60.345 103.5V69H51.595ZM138.19 120.25C132.19 120.167 128.648 116.375 127.565 108.875C126.815 110.708 125.69 112.417 124.19 114C120.19 118.167 115.148 120.25 109.065 120.25C106.565 120.25 104.232 119.833 102.065 119C96.315 116.75 93.44 112.333 93.44 105.75C93.44 104.667 93.5233 103.667 93.69 102.75C95.44 93.25 106.69 88.4583 127.44 88.375V80.5C127.357 72 123.607 67.6667 116.19 67.5C113.023 67.5 110.648 68.5833 109.065 70.75C108.815 71.1667 108.107 73 106.94 76.25C105.94 78.9167 104.315 80.25 102.065 80.25C101.565 80.25 101.023 80.2083 100.44 80.125C97.94 79.5417 96.69 77.9167 96.69 75.25C96.69 73.8333 97.19 72.4167 98.19 71C101.357 66.5833 107.773 64.375 117.44 64.375C131.023 64.4583 137.898 70.8333 138.065 83.5V109.875C138.148 113.958 139.232 116.083 141.315 116.25C143.898 116.167 145.482 113.125 146.065 107.125L149.315 107.25C149.232 108.667 149.107 110 148.94 111.25C147.773 117.25 144.19 120.25 138.19 120.25ZM113.69 115.125C115.19 115.125 116.773 114.792 118.44 114.125C123.023 111.958 126.023 108 127.44 102.25V91.875C121.607 91.9583 117.065 92.375 113.815 93.125C107.648 94.625 104.565 98.1667 104.565 103.75C104.565 104.667 104.607 105.542 104.69 106.375C105.44 112.208 108.44 115.125 113.69 115.125ZM181.035 115.875C181.535 115.875 181.952 115.917 182.285 116C183.535 116.167 184.16 117.167 184.16 119H152.41V115.875C154.91 115.875 156.743 115.708 157.91 115.375C160.16 114.625 161.285 112.333 161.285 108.5V68.875H152.41V65.75H171.285L171.785 77.75C172.785 75.4167 174.118 73.3333 175.785 71.5C179.785 67.1667 184.368 65 189.535 65C190.452 65 191.327 65.0833 192.16 65.25C195.993 66.0833 197.91 68.4167 197.91 72.25C197.91 72.8333 197.827 73.4583 197.66 74.125C196.827 76.7083 195.035 78 192.285 78C191.702 78 191.118 77.9167 190.535 77.75C189.202 77.3333 187.868 75.9583 186.535 73.625C185.368 71.5417 184.16 70.5 182.91 70.5C181.91 70.5 180.702 71.0833 179.285 72.25C175.035 75.8333 172.618 81.2083 172.035 88.375V115.875H181.035Z" fill="white"/>
</svg>
